# xmcd
# 
# Track frame offsets:
#   150
#   16475
#   33376
#   50767
#   74548
#   92056
#   106836
#   120696
#   142704
#   164610
#   181058
#   200542
#   221350
#   246101
#   264676
# 
# Disc length: 3718 seconds
# 
# Revision: 1
# Processed by: cddbd v1.5.2PL0 Copyright (c) Steve Scherf et al.
# Submitted via: Synapstar 1.0 
# 
DISCID=d50e840f
DTITLE=Various Artist - SC8897
DYEAR=1900
DGENRE=Country
TTITLE0=Shania and Billy Currington Twain - Party For Two (Radio Version)
TTITLE1=Gary Allan - Nothing On But The Radio
TTITLE2=Reba McEntire - He Gets That From Me
TTITLE3=Tim McGraw - Back When
TTITLE4=Tim McGraw - My Old Friend
TTITLE5=Gretchen Wilson - When It Rains
TTITLE6=Alan Jackson - To Do What I Do
TTITLE7=Kenny Chesney - Woman With You, The
TTITLE8=Tim McGraw - Drugs Or Jesus
TTITLE9=Jimmy and Toby Keith Buffett - Piece Of Work
TTITLE10=Cledus T. and Toby Keith Judd - I Love Nascar
TTITLE11=Big and Rich - Holy Water
TTITLE12=Gretchen Wilson - Pocahontas Proud
TTITLE13=Joe Diffie - If I Could Only Bring You Back
TTITLE14=LeAnn Rimes - Nothin' 'bout Love Makes Sense
EXTD=MediaType: Karaoke CD+G Producer: Sound Choice
EXTT0=
EXTT1=
EXTT2=
EXTT3=
EXTT4=
EXTT5=
EXTT6=
EXTT7=
EXTT8=
EXTT9=
EXTT10=
EXTT11=
EXTT12=
EXTT13=
EXTT14=
PLAYORDER=
